<svg width="40" height="40" viewBox="0 0 40 40" fill="none" xmlns="http://www.w3.org/2000/svg">
<path d="M16.4917 1.42334L17.8808 17.5732C17.9898 17.9337 18.2519 18.2313 18.684 18.4667C19.1315 18.7103 19.7397 18.8572 20.3491 18.8647C20.9585 18.872 21.5663 18.7379 22.0116 18.5008C22.444 18.2706 22.7128 17.974 22.8319 17.5706L24.4092 1.42334H16.4917ZM6.66014 4.92662C3.52654 7.27623 1.60889 10.4337 1.60889 13.9256C1.60889 16.3648 2.54482 18.6475 4.17475 20.6029L6.28904 14.5066C5.36365 13.1133 4.84373 11.5556 4.84373 9.91451C4.84373 8.10412 5.54951 6.42475 6.66014 4.92662ZM33.3496 4.92662C34.4602 6.42475 35.166 8.10396 35.166 9.91436C35.166 11.4754 34.6947 12.9612 33.8525 14.3015L35.9961 20.4783C37.5745 18.5506 38.4815 16.3135 38.4815 13.9256C38.4815 10.4339 36.483 7.27631 33.3496 4.92662ZM15.7788 10.1805C12.9679 12.8911 11.1572 15.0563 10.0146 17.5975C8.32037 21.365 7.96318 26.2058 7.95154 35.2244C11.1386 36.9172 14.4683 37.9379 17.7978 38.2958L18.816 26.328C16.4337 26.2223 14.0222 25.8491 11.4894 25.1708L10.6861 24.9559L11.0011 24.1869L11.7995 22.2412L12.0436 21.6479L12.6637 21.8139C17.7209 23.1682 22.801 23.1252 27.6979 21.8139L28.3327 21.6428L28.5671 22.2581L29.3116 24.2039L29.6022 24.9608L28.8187 25.1708C26.4132 25.8149 24.0887 26.1898 21.763 26.3133L22.8125 38.3323C26.2551 38.0126 29.6155 36.9767 32.727 35.2366C32.7106 26.7122 32.2267 22.0544 30.459 18.2323C29.3075 15.7425 27.5524 13.5132 24.9658 10.7592L24.2773 17.7951L24.2724 17.8562L24.2554 17.9148C24.0251 18.7731 23.4135 19.4086 22.6976 19.7898C21.9818 20.1711 21.1532 20.3346 20.3319 20.3245C19.5107 20.3145 18.6901 20.1319 17.9858 19.7483C17.2814 19.3649 16.6782 18.7474 16.455 17.9149L16.4378 17.8515L16.4331 17.7879L15.7788 10.1805ZM8.081 13.7962L4.88279 23.02L6.92873 23.9648C7.24826 21.1953 7.78607 18.9909 8.68162 16.9995C9.08498 16.1026 9.55686 15.2576 10.1074 14.4312L8.081 13.7963V13.7962ZM32.1312 13.7962L29.9707 14.4725C30.6798 15.4975 31.2801 16.5282 31.7847 17.6194C32.6349 19.4578 33.2012 21.4422 33.5693 23.8328L35.332 23.0198L32.1312 13.7962V13.7962Z" fill="#9E9E9E"/>
</svg>
