<svg width="20" height="20" viewBox="0 0 20 20" fill="none" xmlns="http://www.w3.org/2000/svg">
<g clip-path="url(#clip0_105_26)">
<path d="M10.0117 0.758789C7.96875 2.23457 6.92188 4.33613 5.95703 6.27754C7.65234 5.3166 9.92969 4.99238 10.9141 5.15645C8.42188 5.57051 6.69531 6.16426 5.27344 7.66816C5.1875 7.84395 5.11328 7.99238 5.02344 8.17988C9.53125 7.09395 10.2734 7.1252 14.8242 8.15254C14.375 6.19551 13.3984 4.94551 11.875 2.57168C13.5117 4.6252 16.7227 8.1291 16.5742 7.44551C15.6797 3.34902 12.6641 0.917773 10.0117 0.758789ZM3.4375 9.03535C2.22656 9.32441 1.33203 9.71895 0.984375 10.0783C1.01953 10.5354 1.24609 10.9416 1.66797 11.3283C2.12891 11.7502 2.82422 12.1252 3.67188 12.426C3.77695 12.4611 3.88242 12.4963 3.98828 12.5314C3.66016 12.1018 3.55078 11.5041 3.48047 10.926C3.48047 10.3244 3.36328 9.61738 3.4375 9.03535ZM16.5625 9.03535C16.6484 9.66816 16.5859 10.383 16.5195 10.926C16.4492 11.5041 16.3398 12.1018 16.0117 12.5314C16.8008 12.258 17.7539 11.8439 18.332 11.3283C18.7539 10.9416 18.9805 10.5354 19.0156 10.0783C18.668 9.71895 17.7773 9.32441 16.5625 9.03535ZM5.84375 9.04707L5.57031 9.59395H9.42969L9.15625 9.04707H5.84375ZM10.8438 9.04707L10.5703 9.59395H14.4297L14.1563 9.04707H10.8438ZM4.64844 9.41426C4.46484 9.46504 4.28125 9.51582 4.10156 9.57441C4.14063 10.3518 4.125 11.4338 4.55469 12.0939H4.64844V9.41426ZM15.3516 9.41426V12.0939H15.4453C15.8555 11.2854 15.8867 10.4611 15.8984 9.57441C15.7188 9.51582 15.5352 9.46504 15.3516 9.41426ZM5.35547 10.2971C5.34375 11.0314 5.43359 11.84 5.59766 12.4729C6.42188 11.9221 7.23438 11.4689 8.125 11.4689C8.25 11.4689 8.375 11.4768 8.49219 11.4846L8.69531 10.8713C8.47656 11.0939 8.19141 11.2189 7.78906 11.2033C6.80469 11.1721 6.46484 10.7697 6.32422 10.2971H5.35547ZM9.62891 10.2971L9.14453 11.7502L10 12.8205L10.8555 11.7502L10.3711 10.2971H9.62891ZM13.6758 10.2971C13.5352 10.7697 13.1953 11.1721 12.2109 11.2033C11.8086 11.2189 11.5234 11.0939 11.3047 10.8713L11.5078 11.4846C11.6289 11.4729 11.7539 11.4689 11.875 11.4689C12.7656 11.4689 13.5781 11.9221 14.4023 12.4729C14.5742 11.6877 14.668 11.0041 14.6445 10.2971H13.6758ZM8.125 12.1721C7.34375 12.1721 6.44531 12.7385 5.43359 13.4377C4.68359 13.9572 3.875 14.5354 2.96094 14.9377C4.07813 15.176 5.53125 15.1252 6.79688 14.8361C7.62891 14.6486 8.37891 14.3635 8.89453 14.0354C9.22656 13.8205 9.44531 13.6018 9.55859 13.3947L8.61328 12.2111C8.46875 12.1877 8.30469 12.1721 8.125 12.1721ZM11.875 12.1721C11.6953 12.1721 11.5313 12.1877 11.3867 12.2111L10.4414 13.3947C10.5547 13.6018 10.7734 13.8205 11.1055 14.0354C11.6211 14.3635 12.3711 14.6486 13.2031 14.8361C14.4688 15.1252 15.9219 15.176 17.0391 14.9377C16.125 14.5354 15.3164 13.9572 14.5664 13.4377C13.5547 12.7385 12.6563 12.1721 11.875 12.1721ZM10 13.9963C9.82031 14.2189 9.58594 14.4182 9.32031 14.5939H10.6797C10.4141 14.4182 10.1797 14.2189 10 13.9963ZM7.78516 15.2971C7.51563 15.383 7.23828 15.4572 6.95313 15.5236C6.58203 15.6096 6.20313 15.676 5.82422 15.7229C6.0625 16.4885 6.375 17.2658 6.72266 17.9963L6.72656 18.0041C6.89453 17.7424 7.09375 17.4924 7.25391 17.2307C7.16016 17.7736 7.125 18.3205 7.16406 18.8635C7.23047 18.9924 7.30078 19.1174 7.37109 19.2424H12.6289C12.7695 18.9963 12.9023 18.7463 13.0313 18.4924C13.2422 17.6369 13.1836 16.8205 13.2422 15.9846C13.3633 16.4338 13.4805 16.883 13.5742 17.34C13.8008 16.8088 14.0078 16.2619 14.1758 15.7229C13.7969 15.676 13.418 15.6096 13.0469 15.5236C12.7617 15.4572 12.4844 15.383 12.2148 15.2971H7.78516Z" fill="#9E9E9E"/>
</g>
<defs>
<clipPath id="clip0_105_26">
<rect width="20" height="20" fill="white"/>
</clipPath>
</defs>
</svg>
