<svg width="25" height="25" viewBox="0 0 25 25" fill="none" xmlns="http://www.w3.org/2000/svg">
<g id="dice-twenty-faces-twenty 1">
<g id="Vector">
<path d="M3.49268 6.7334L12.0703 1.25V6.54785L3.49268 6.7334Z" fill="#A4A4A4" fill-opacity="0.35"/>
<path d="M12.8516 6.54785V1.25L21.4307 6.7334L12.8516 6.54785Z" fill="#A4A4A4" fill-opacity="0.35"/>
<path d="M2.66553 7.53418L11.7725 7.33398L6.14258 16.9531L2.66553 7.53418Z" fill="#A4A4A4" fill-opacity="0.35"/>
<path d="M18.7793 16.9531L13.1494 7.33398L22.2559 7.53418L18.7793 16.9531Z" fill="#A4A4A4" fill-opacity="0.35"/>
<path d="M6.74316 17.4756L12.4609 7.7002L18.1787 17.4756H6.74316Z" fill="#A4A4A4" fill-opacity="0.35"/>
<path d="M2.5 17.7979V9.34082L4.01123 13.4302L5.52246 17.5195L2.5 17.7979Z" fill="#A4A4A4" fill-opacity="0.35"/>
<path d="M19.3994 17.5195L22.4219 9.34082V17.7979L19.3994 17.5195Z" fill="#A4A4A4" fill-opacity="0.35"/>
<path d="M12.4609 24.2676L6.95312 18.2568H17.9688L12.4609 24.2676Z" fill="#A4A4A4" fill-opacity="0.35"/>
<path d="M3.2793 18.5107L5.9082 18.2715L10.1562 22.9102L6.97754 20.874L3.2793 18.5107Z" fill="#A4A4A4" fill-opacity="0.35"/>
<path d="M16.9434 20.5322L19.0137 18.2715L21.6406 18.5107L18.9795 20.2148L14.7656 22.9102L16.7334 20.7617C16.7674 20.7478 16.8727 20.6416 17.0043 20.5008C16.9843 20.5118 16.964 20.5222 16.9434 20.5322Z" fill="#A4A4A4" fill-opacity="0.35"/>
</g>
</g>
</svg>
