<svg width="20" height="20" viewBox="0 0 20 20" fill="none" xmlns="http://www.w3.org/2000/svg">
<path d="M10.3216 1.31398C10.1786 1.31363 10.0357 1.32156 9.89359 1.33773C7.4568 1.61616 5.14918 3.63507 3.9443 5.96694C3.94891 5.96323 3.95344 5.9594 3.95809 5.95573L4.24961 5.7253L4.46355 6.02913C4.52426 6.11538 4.57574 6.21128 4.62109 6.31585C4.93078 5.63276 5.46602 4.96542 6.19777 4.51569L6.49504 4.33304L6.67996 4.62882C6.7777 4.78519 6.84832 4.96874 6.90312 5.17632C7.28941 4.52612 7.9032 3.91648 8.69055 3.55101L9.00699 3.40413L9.15629 3.71948C9.16227 3.7321 9.16793 3.74495 9.17355 3.75784C9.55566 3.24487 10.0827 2.78382 10.7254 2.4855L11.0419 2.33855L11.1912 2.65386C11.2442 2.76573 11.283 2.8889 11.3125 3.02167C11.6418 2.60276 12.077 2.21901 12.5942 1.93792C11.8676 1.5514 11.0942 1.31538 10.3216 1.31398ZM15.8098 2.08792C14.9668 2.27894 14.2129 2.80894 13.8555 3.30917C13.6471 3.60097 13.5937 3.85663 13.6287 3.98839C13.6636 4.12019 13.7637 4.24882 14.1875 4.32159C14.3354 4.34698 14.5021 4.29206 14.7067 4.12261C14.9113 3.95316 15.1257 3.67792 15.3066 3.36636C15.4874 3.05487 15.6371 2.70757 15.7343 2.39956C15.77 2.28628 15.7895 2.18667 15.8098 2.08792ZM13.0338 2.50745C12.2648 2.90214 11.6663 3.60304 11.4446 4.1764C11.4054 4.27765 11.3794 4.37198 11.3637 4.45784C11.3585 4.51019 11.3525 4.56253 11.3457 4.61495C11.3409 4.73655 11.3605 4.83128 11.3938 4.89066C11.4604 5.0096 11.5893 5.10929 12.0179 5.07437C12.1673 5.06218 12.3152 4.96757 12.4713 4.75257C12.6273 4.53753 12.7666 4.21761 12.8643 3.87093C12.9619 3.52421 13.0205 3.15062 13.0381 2.82812C13.0445 2.70948 13.0387 2.60819 13.0338 2.50745ZM10.6452 3.3364C10.0468 3.7289 9.5875 4.31749 9.35633 4.84538C9.36328 5.17901 9.33961 5.53991 9.27953 5.89355C9.27941 5.89433 9.27922 5.89507 9.27906 5.89585C9.36012 5.99909 9.505 6.073 9.90734 5.99663C10.0547 5.96866 10.1917 5.85894 10.3241 5.62858C10.4564 5.39819 10.561 5.06526 10.6213 4.71015C10.6816 4.35507 10.7003 3.97726 10.6835 3.65476C10.6773 3.53612 10.6608 3.43601 10.6452 3.3364ZM8.6102 4.40202C7.88742 4.87605 7.36672 5.6364 7.20707 6.23007C7.11395 6.57644 7.15344 6.83452 7.2323 6.94569C7.31121 7.05691 7.44988 7.14241 7.87234 7.06222C8.01973 7.03425 8.15672 6.92444 8.28906 6.69409C8.42145 6.46374 8.52598 6.13085 8.58633 5.77573C8.64664 5.42065 8.66527 5.04288 8.64848 4.72038C8.6423 4.60171 8.62578 4.50163 8.6102 4.40202ZM15.3569 4.47683C15.2931 4.54287 15.2257 4.60539 15.1552 4.66413C14.8547 4.91296 14.4753 5.08441 14.0685 5.01456C13.9986 5.0026 13.9294 4.98709 13.8611 4.96808C13.8529 4.98968 13.8458 5.01038 13.8398 5.02999C14.2259 5.18163 14.5952 5.3796 14.906 5.58905C14.925 5.60191 14.9431 5.61472 14.9617 5.62757C15.5208 5.57081 16.1891 5.3378 16.7322 4.92589C16.6436 4.87784 16.5548 4.82882 16.445 4.78323C16.1468 4.65941 15.7845 4.55042 15.4297 4.48835C15.4054 4.48409 15.3811 4.48062 15.3569 4.47683ZM6.21691 5.37019C5.5541 5.92499 5.12527 6.74077 5.03574 7.34901C4.98352 7.70382 5.05273 7.95558 5.14402 8.05683C5.23527 8.15812 5.38301 8.22687 5.79324 8.09812C5.93637 8.05319 6.05965 7.92827 6.16434 7.68405C6.26902 7.43991 6.33426 7.09714 6.35289 6.73741C6.37152 6.37773 6.34609 6.00034 6.29195 5.68194C6.27199 5.56484 6.24395 5.4673 6.21691 5.37019ZM12.7619 5.47155C12.5707 5.63663 12.341 5.75355 12.0749 5.77523C12.0446 5.77769 12.0147 5.77905 11.9849 5.78026C11.8222 6.00542 11.8305 6.13589 11.8759 6.23968C11.9306 6.3646 12.1316 6.53136 12.4764 6.62991C13.0675 6.7989 13.9875 6.74429 14.7661 6.36894C14.6887 6.30425 14.6114 6.23855 14.5129 6.17206C14.2451 5.99159 13.9117 5.81296 13.5763 5.68175C13.2916 5.57042 13.0047 5.49511 12.7619 5.47155ZM16.1469 6.0646C15.9749 6.13245 15.7986 6.1888 15.6191 6.23327C15.6235 6.23968 15.6281 6.24601 15.6324 6.25241L15.8257 6.5428L15.5368 6.73835C14.7394 7.27812 13.7946 7.47995 12.9784 7.42417C13.0245 7.49394 13.0648 7.56448 13.0977 7.63648L13.2428 7.95378L12.9266 8.10128C12.2208 8.43046 11.4546 8.5262 10.7657 8.45343C10.8955 8.65507 10.993 8.85015 11.0436 9.04616L11.1308 9.38398L10.7937 9.47382C10.149 9.64546 9.4907 9.64073 8.8968 9.51491C8.99051 9.67526 9.06187 9.83241 9.10258 9.99015L9.1898 10.328L8.85266 10.4178C8.17457 10.5983 7.48145 10.5837 6.86406 10.4383C6.98906 10.6529 7.07902 10.8558 7.11445 11.064L7.17656 11.429L6.80883 11.4721C5.66328 11.6065 4.53613 11.21 3.85426 10.6447C3.69461 10.5124 3.55281 10.3669 3.44746 10.2065C4.15016 12.5186 5.89734 15.0337 5.89734 15.0337L4.51145 17.7211C6.44488 18.7193 8.62043 19.2331 11.1739 18.9912C11.1049 17.7374 11.8174 16.8109 12.4639 16.0805C11.8939 16.0424 11.2925 15.9935 10.7121 15.8826C10.0671 15.7594 9.44098 15.5568 8.91508 15.1783C8.38914 14.7998 7.97629 14.2367 7.78398 13.4712L8.46594 13.2999C8.6218 13.9202 8.91992 14.3155 9.32574 14.6076C9.7316 14.8997 10.2579 15.08 10.8441 15.192C11.8408 15.3825 12.9828 15.365 13.9517 15.4906C14.9965 15.4117 16.181 15.5922 16.4298 15.1548C17.038 14.086 16.6273 12.6575 16.2955 11.5418C17.0167 11.518 17.3962 11.4758 17.8086 11.3478C17.4723 10.0001 16.9546 9.20394 16.1014 8.47671C16.165 7.67776 16.2652 6.83413 16.1469 6.0646ZM10.5334 6.45644C10.3915 6.56862 10.227 6.65167 10.0384 6.68745C9.83734 6.72562 9.64543 6.73253 9.4691 6.71081C9.3757 6.83886 9.36875 6.93499 9.38785 7.01858C9.51086 7.10456 9.63055 7.19827 9.74629 7.2973C9.84296 7.3803 9.9367 7.46665 10.0273 7.5562C10.59 7.78077 11.4461 7.84726 12.2239 7.61464C12.1578 7.53858 12.0918 7.46151 12.005 7.38034C11.7691 7.1598 11.4681 6.93073 11.1576 6.74819C10.9471 6.62448 10.7319 6.52374 10.5334 6.45644ZM4.05324 6.84034C3.57809 7.38409 3.29488 8.11214 3.2648 8.64562C3.24645 8.97151 3.32938 9.19546 3.40145 9.26733C3.47355 9.33921 3.56125 9.38706 3.88852 9.24339C3.98539 9.20085 4.08078 9.08702 4.15141 8.8587C4.22203 8.63038 4.25258 8.31339 4.24203 7.98491C4.23156 7.65644 4.18219 7.31526 4.11281 7.03038C4.09531 6.95851 4.07352 6.90421 4.05324 6.84034ZM8.64246 7.39105C8.47188 7.56917 8.25977 7.70433 8.00352 7.753C7.82699 7.78648 7.65738 7.79616 7.49926 7.78343C7.49945 7.7889 7.49965 7.79437 7.50004 7.79976C7.50668 7.88546 7.56297 8.00612 7.67711 8.1353C7.72031 8.16991 7.76309 8.20519 7.80527 8.24128C7.85776 8.28642 7.90937 8.33258 7.96008 8.37972C8.46617 8.72601 9.33996 8.96878 10.1871 8.87151C10.1353 8.78503 10.0839 8.69753 10.0127 8.60245C9.81914 8.34394 9.56301 8.06573 9.28926 7.83155C9.07547 7.64866 8.84984 7.49417 8.64246 7.39105ZM6.62355 8.29788C6.47168 8.51183 6.2682 8.68609 6.00383 8.76905C5.86152 8.81374 5.72195 8.84159 5.58797 8.85304C5.64227 8.98409 5.77363 9.15187 5.99789 9.30968C6.50063 9.66351 7.38738 9.91413 8.24613 9.81554C8.1943 9.72901 8.14293 9.64151 8.07172 9.5464C7.87812 9.28792 7.62191 9.00968 7.3482 8.77554C7.10738 8.56952 6.85133 8.39878 6.62359 8.29788H6.62355ZM4.72484 9.31882C4.60836 9.56101 4.43203 9.77273 4.17117 9.88722C4.15148 9.89589 4.13172 9.90343 4.11199 9.91124C4.16913 9.98148 4.23312 10.0459 4.30301 10.1034C4.71605 10.4459 5.47277 10.7494 6.24262 10.7851C6.21461 10.7345 6.19543 10.69 6.16117 10.6367C6.00738 10.3978 5.79731 10.1338 5.56715 9.90491C5.33699 9.67608 5.08477 9.48312 4.86348 9.37628C4.81844 9.35442 4.77215 9.33524 4.72484 9.31886V9.31882ZM2.82344 9.67276L1.51758 10.5085L1.89664 11.1008L3.4041 10.136C3.37798 10.0903 3.35492 10.0428 3.33508 9.99405C3.16965 9.95734 3.02172 9.88171 2.90492 9.76523C2.87595 9.73605 2.84874 9.70517 2.82344 9.67276Z" fill="#9EA6FF"/>
</svg>
