<svg width="40" height="40" viewBox="0 0 40 40" fill="none" xmlns="http://www.w3.org/2000/svg">
<path d="M19.979 8.23324C21.5082 4.33718 24.7796 1.36092 28.8428 1.36092C32.2641 1.36092 35.076 3.17008 37.3654 5.62256C40.4074 8.88079 41.7625 16.364 36.1236 22.0022C33.2628 24.863 20.0122 38.6388 20.0122 38.6388C20.0122 38.6388 6.76224 24.863 3.90137 22.0021C-1.73747 16.3639 -0.449353 8.88071 2.65959 5.62248C4.97524 3.1956 7.7608 1.36084 11.1822 1.36084C15.2454 1.36084 18.4497 4.33718 19.979 8.23324Z" fill="#AAB1FF"/>
<path d="M33.6491 7.42298C35.6849 9.1346 36.7442 12.3628 36.143 15.043C36.0902 15.2761 36.0338 15.5143 35.9744 15.7546C35.8828 16.1251 36.1089 16.4997 36.4793 16.5914C36.8498 16.683 37.2244 16.4569 37.316 16.0865C37.3776 15.8373 37.4361 15.5902 37.4912 15.347C38.2047 12.1661 36.9729 8.41191 34.5386 6.36532C33.2124 5.24973 31.5973 4.77832 29.2131 4.77832C28.8315 4.77832 28.5221 5.08769 28.5221 5.46939C28.5221 5.85109 28.8314 6.16046 29.2131 6.16046C31.2969 6.1603 32.6003 6.54075 33.6491 7.42298Z" fill="#AAB1FF"/>
</svg>
