<svg width="40" height="40" viewBox="0 0 40 40" fill="none" xmlns="http://www.w3.org/2000/svg">
<path d="M36.5497 2.80078C32.3929 3.07562 28.6369 3.43289 25.6794 6.72109C26.4504 9.0307 27.7238 11.8683 29.3211 14.1613C30.9229 16.4609 32.8178 18.1136 34.6812 18.3251C37.4363 15.7425 38.8765 9.52828 36.5497 2.80078ZM14.828 3.59547C14.3894 3.61082 13.9684 3.70663 13.579 3.87969C13.0687 4.10647 12.6216 4.46203 12.2633 4.92606C11.9049 5.39009 11.6423 5.9535 11.4905 6.58413C11.3387 7.21475 11.3005 7.90024 11.3783 8.60146C11.4561 9.30268 11.6482 10.0059 11.9438 10.6709C12.3511 11.5865 12.9412 12.4002 13.6513 13.0254C14.3615 13.6505 15.1651 14.0638 15.9766 14.2212C16.1635 18.7139 14.4588 17.6495 10.4662 19.9716L11.7074 22.4474C14.486 21.3747 15.7577 20.9081 17.1191 18.9852C19.6649 26.3227 16.9727 31.2692 15.2685 38.2881L17.9022 38.6722C19.7536 34.1998 22.2079 29.1132 22.7801 24.4986C26.6033 28.4934 28.8347 33.4549 31.7372 37.7129L34.5356 36.5605C30.9567 30.254 29.408 26.5316 22.7707 16.077C24.8659 16.0618 26.6633 15.562 28.2928 14.8721C27.7431 14.0827 27.233 13.2407 26.7671 12.381C24.5622 13.325 22.1555 13.7089 19.7249 12.4478C20.1146 11.742 20.3188 10.8875 20.3172 9.96969C20.3156 9.05187 20.1082 8.10274 19.7157 7.21695C19.2349 6.13523 18.5011 5.20004 17.6215 4.54835C16.742 3.89667 15.763 3.56274 14.828 3.59547ZM1.2085 6.82117L1.46529 9.48445L5.57467 17.904L7.25967 17.0816L3.16725 8.69688L1.2085 6.82117ZM8.79178 17.7248L5.13896 19.5077L5.38404 20.9527L9.78022 18.8071L8.79178 17.7248ZM8.97287 20.592L7.28787 21.4145L8.59006 24.0825L10.2751 23.2601L8.97287 20.5921V20.592Z" fill="#9E9E9E"/>
</svg>
