<svg width="40" height="39" viewBox="0 0 40 39" fill="none" xmlns="http://www.w3.org/2000/svg">
<path d="M19.2041 0.811602C19.1082 0.811133 19.0123 0.813711 18.9184 0.818867C18.1291 0.862617 17.3836 1.10652 16.5625 1.69777L18.1812 17.0714C17.5255 17.2375 16.8784 17.4206 16.2427 17.6256L10.7594 3.5166C10.21 3.38332 9.39672 3.49316 8.64016 3.87801C7.83953 4.28527 7.15312 4.95926 6.85789 5.66996L12.1117 19.4297C11.5325 19.7692 10.9719 20.1436 10.432 20.5602L4.62398 13.1969C3.34742 13.2514 1.89234 14.3262 1.68945 15.7481C2.25703 16.3979 7.34203 22.2633 9.84375 26.9223C10.6484 28.4211 12.1518 30.8852 12.9053 32.3961C13.3608 33.3096 14.1556 34.2896 15.0805 34.9228C16.0055 35.5559 17.0102 35.8462 18.042 35.5698L26.8629 33.2089C27.292 33.094 27.5813 32.7878 27.8957 32.2763C28.2098 31.765 28.4844 31.0937 28.9039 30.4794C30.5141 28.1212 32.8439 24.5353 37.9028 21.7246C37.6922 20.5486 37.3243 19.805 36.9091 19.415C36.438 18.9722 35.878 18.839 35.0586 18.9585C33.6475 19.1639 31.6603 20.2915 29.6216 21.8393C29.4903 21.9479 29.3623 22.0582 29.2359 22.1689L28.689 17.3836L32.0093 5.21816C31.6595 4.64355 30.9307 4.18238 30.0683 3.97051C29.2188 3.76191 28.31 3.83785 27.7027 4.09512L24.6753 15.804C23.9437 15.9275 23.2119 16.0517 22.4828 16.18L21.382 1.14848C20.5963 0.951602 19.8755 0.814727 19.2043 0.811523L19.2041 0.811602ZM18.308 18.9219L20.6641 23.3457L24.9145 20.6968L22.2755 24.9301L26.6845 27.2813L21.6723 27.1104L21.8432 32.1129L19.4971 27.711L15.2563 30.3526L17.9102 26.0996L13.4937 23.7461L18.4766 23.9146L18.308 18.9219Z" fill="#4F81FF" fill-opacity="0.99"/>
</svg>
