<svg width="20" height="20" viewBox="0 0 20 20" fill="none" xmlns="http://www.w3.org/2000/svg">
<path d="M5.84766 3.34375C5.80078 3.34375 5.75 3.34375 5.70312 3.34766C4.37891 3.37891 2.75391 3.76563 0.730469 4.66406V14.1719C3.10547 13.0469 4.89844 12.7227 6.36328 12.8789C6.89844 12.9336 7.39062 13.0547 7.84375 13.2148L6.08203 10.1367C5.74609 10.2734 5.38281 10.3516 5 10.3516C3.4293 10.3516 2.14844 9.07031 2.14844 7.5C2.14844 5.92969 3.4293 4.64844 5 4.64844C6.57031 4.64844 7.85156 5.92969 7.85156 7.5C7.85156 8.4375 7.39453 9.26953 6.69141 9.79297L8.92969 13.6992C9.17188 13.8242 9.40234 13.9609 9.62891 14.0977V4.60547C8.72266 3.91406 7.66797 3.43359 6.26953 3.35547C6.13281 3.34766 5.99219 3.34375 5.84766 3.34375ZM14.1289 3.34375C13.9844 3.34375 13.8398 3.34766 13.7031 3.35547C12.3047 3.43359 11.2539 3.91406 10.3438 4.60547V14.0977C11.2773 13.5273 12.3008 13.0156 13.6094 12.8789C15.0742 12.7227 16.8711 13.0469 19.2422 14.1719V4.66406C17.2227 3.76563 15.5977 3.37891 14.2734 3.34766C14.2227 3.34766 14.1758 3.34375 14.1289 3.34375ZM5 5.35156C3.80938 5.35156 2.85156 6.30859 2.85156 7.5C2.85156 8.69141 3.80938 9.64844 5 9.64844C6.19141 9.64844 7.14844 8.69141 7.14844 7.5C7.14844 6.30859 6.19141 5.35156 5 5.35156ZM5.08984 5.89453H5.19922C4.25781 6.60547 3.84063 7.53906 3.8957 8.63672C2.87773 7.12109 3.94531 5.92578 5.08984 5.89453ZM5.60156 13.5703C4.35156 13.582 2.79688 13.9531 0.730469 14.9766V16.6367C3.10547 15.5117 4.89844 15.1875 6.36328 15.3437C7.08984 15.4219 7.72656 15.6133 8.30859 15.8633C8.125 16.1016 7.94531 16.3828 7.76562 16.7109H9.84766L8.44141 14.2617C7.79297 13.9375 7.10156 13.6914 6.28906 13.6055C6.07031 13.582 5.83984 13.5703 5.60156 13.5703ZM14.2305 13.5703C14.043 13.5742 13.8633 13.5859 13.6875 13.6055C12.3594 13.7461 11.3594 14.3086 10.3438 14.9492V14.9609C10.1055 14.8867 9.86328 14.8711 9.62891 14.9141L10.6562 16.7109H12.3438C12.1094 16.3906 11.8828 16.1094 11.6523 15.8672C12.2383 15.6133 12.8789 15.4219 13.6094 15.3437C15.0742 15.1875 16.8711 15.5117 19.2422 16.6367V14.9766C17.168 13.9492 15.6055 13.5742 14.3516 13.5703H14.2305Z" fill="#9EA6FF"/>
</svg>
