<svg width="40" height="40" viewBox="0 0 40 40" fill="none" xmlns="http://www.w3.org/2000/svg">
<path d="M26.0766 1.57723C22.9539 1.57723 19.8297 2.76566 17.4512 5.1441C12.8678 9.72746 12.7015 17.0754 16.9507 21.8605L15.7177 23.0908L16.7529 24.126L17.9834 22.8932C22.7684 27.1424 30.1162 26.976 34.6996 22.3926C39.4564 17.6359 39.4565 9.9009 34.6996 5.14418C32.3213 2.76566 29.1995 1.57723 26.0766 1.57723ZM26.0766 3.02738C28.8227 3.02738 31.5676 4.07738 33.667 6.17684C37.8659 10.3757 37.8658 17.1612 33.667 21.3599C29.6416 25.3854 23.2405 25.5507 19.0186 21.8579L19.0356 21.841C18.852 21.6808 18.6709 21.5152 18.4961 21.3404C18.3237 21.1681 18.1611 20.9892 18.0029 20.8082L17.9859 20.8254C14.2929 16.6036 14.4584 10.2023 18.4838 6.17684C20.5834 4.07738 23.3305 3.02738 26.0766 3.02738ZM26.0766 4.49715C23.7086 4.49715 21.3398 5.4034 19.5289 7.21434C15.9069 10.8364 15.9069 16.6857 19.5289 20.3076C20.3211 21.1 21.2189 21.7199 22.1777 22.1656C20.2316 20.6744 18.977 18.3271 18.977 15.6859C18.977 14.4888 19.2341 13.3509 19.6973 12.3265C19.3719 13.9269 19.7316 15.5203 20.8277 16.6161C22.7483 18.5368 26.1984 18.2035 28.5327 15.8691C30.8671 13.5347 31.2004 10.0847 29.2796 8.16402C29.0941 7.9784 28.8934 7.81457 28.6816 7.67082C32.2073 8.34644 34.928 11.2915 35.2636 14.9268C35.6105 12.1869 34.7308 9.32316 32.622 7.21426C30.811 5.40332 28.4446 4.49707 26.0766 4.49707L26.0766 4.49715ZM13.8209 23.2569L3.28859 33.7891L5.98875 36.4893L16.5211 25.9571L13.8208 23.2568L13.8209 23.2569ZM3.125 35.6886L1.875 36.936L2.90781 37.9688L4.15531 36.7188L3.125 35.6886Z" fill="#9E9E9E"/>
</svg>
