<svg width="40" height="40" viewBox="0 0 40 40" fill="none" xmlns="http://www.w3.org/2000/svg">
<path d="M19.9789 8.23324C21.5082 4.33718 24.7795 1.36092 28.8428 1.36092C32.2641 1.36092 35.076 3.17008 37.3654 5.62256C40.4073 8.88079 41.7625 16.364 36.1236 22.0022C33.2627 24.863 20.0121 38.6388 20.0121 38.6388C20.0121 38.6388 6.76221 24.863 3.90133 22.0021C-1.73751 16.3639 -0.449391 8.88071 2.65956 5.62248C4.9752 3.1956 7.76076 1.36084 11.1821 1.36084C15.2453 1.36084 18.4497 4.33718 19.9789 8.23324Z" fill="#9EA6FF"/>
<path d="M33.649 7.42298C35.6848 9.1346 36.7441 12.3628 36.1429 15.043C36.0901 15.2761 36.0337 15.5143 35.9743 15.7546C35.8827 16.1251 36.1088 16.4997 36.4792 16.5914C36.8497 16.683 37.2243 16.4569 37.316 16.0865C37.3776 15.8373 37.436 15.5902 37.4911 15.347C38.2046 12.1661 36.9728 8.41191 34.5385 6.36532C33.2123 5.24973 31.5972 4.77832 29.213 4.77832C28.8314 4.77832 28.522 5.08769 28.522 5.46939C28.522 5.85109 28.8313 6.16046 29.213 6.16046C31.2968 6.1603 32.6002 6.54075 33.649 7.42298Z" fill="#9EA6FF"/>
</svg>
