<svg width="20" height="20" viewBox="0 0 20 20" fill="none" xmlns="http://www.w3.org/2000/svg">
<path d="M10 1.60156C8.89648 1.60156 7.72031 2.31445 6.82945 3.35379C6.70687 3.49676 6.59027 3.64586 6.47996 3.79922L8.125 2.7025L9.0284 3.30477C9.04816 3.03383 9.12871 2.78477 9.26551 2.57957C9.42441 2.34129 9.68492 2.14844 10 2.14844C10.3151 2.14844 10.5756 2.34125 10.7345 2.57957C10.8713 2.78477 10.9518 3.03387 10.9716 3.30477L11.875 2.7025L13.52 3.79922C13.4097 3.64586 13.2931 3.4968 13.1705 3.35379C12.2797 2.31445 11.1035 1.60156 10 1.60156ZM10 2.85156C9.96992 2.85156 9.91785 2.86859 9.85055 2.96953C9.7832 3.07062 9.72656 3.24199 9.72656 3.4375C9.72656 3.58711 9.75977 3.72227 9.80547 3.82285L10 3.95254L10.1945 3.82285C10.2402 3.72227 10.2734 3.58711 10.2734 3.4375C10.2734 3.24195 10.2168 3.07059 10.1495 2.96953C10.0821 2.86863 10.0301 2.85156 10 2.85156ZM8.125 3.5475L7.00691 4.29281L7.21535 4.33449C7.87637 4.41613 8.64223 4.46832 9.42648 4.48555C9.37242 4.43477 9.32391 4.37852 9.28195 4.31883L8.125 3.5475ZM11.875 3.5475L10.7181 4.31887C10.6761 4.37852 10.6276 4.4348 10.5736 4.48555C11.3578 4.46828 12.1237 4.41613 12.7848 4.33449L12.9931 4.29281L11.875 3.5475ZM1.25 4.375C2.55148 5.67648 3.55133 7.88055 4.04152 9.31664C4.16559 8.30914 4.33187 7.28316 4.53137 6.40031C4.57734 6.19707 4.62367 6.00277 4.67141 5.81742C3.85391 5.17695 1.7507 4.375 1.25 4.375ZM18.75 4.375C18.2493 4.375 16.1461 5.17695 15.3286 5.81742C15.3763 6.00277 15.4227 6.19711 15.4686 6.40031C15.6681 7.28313 15.8344 8.30914 15.9584 9.31664C16.4487 7.88055 17.4486 5.67648 18.75 4.375ZM5.80195 4.76898C5.62063 5.11102 5.39668 5.76109 5.21719 6.55531C5.00332 7.5018 4.82422 8.64281 4.69934 9.73672C4.59309 10.6669 4.52902 11.5533 4.51059 12.267C4.77867 11.3576 5.10934 10.2544 5.53074 9.14422C6.11465 7.60594 6.83855 6.0773 7.86504 5.18156L5.80203 4.76898H5.80195ZM14.198 4.76898L12.135 5.18156C13.1614 6.07727 13.8854 7.6059 14.4693 9.14422C14.8907 10.2544 15.2214 11.3577 15.4894 12.267C15.4709 11.5533 15.4068 10.6669 15.3006 9.73672C15.1757 8.64285 14.9966 7.50184 14.7827 6.55531C14.6032 5.76109 14.3793 5.11102 14.198 4.76898H14.198ZM9.16855 5.18383L8.90723 5.31449C8.6584 5.43898 8.41602 5.62777 8.18168 5.86598C8.44211 5.89801 8.6891 5.94848 8.90785 6.01687C9.24824 6.12344 9.56352 6.22828 9.70332 6.59305L9.04676 6.84461C9.07473 6.91758 8.95836 6.76949 8.69785 6.68797C8.4373 6.60652 8.07578 6.54711 7.70832 6.53211C7.68348 6.53113 7.65859 6.53082 7.63371 6.53023C7.50754 6.70816 7.38449 6.89898 7.26488 7.10039C7.45328 7.05449 7.63293 7.03133 7.81254 7.03133C8.28129 7.03133 8.75004 7.18758 9.37504 7.50008C9.37504 8.12508 8.75004 8.75008 8.12504 8.75008C7.73988 8.75008 7.11785 8.51266 6.6968 8.1843C6.51504 8.57375 6.34484 8.9809 6.18809 9.39383C6.0973 9.63297 6.01082 9.87301 5.92785 10.1118C6.28621 11.0804 6.77855 11.915 7.30879 12.5968C7.83516 13.2736 8.39914 13.7981 8.89379 14.1462C9.38836 14.4941 9.83398 14.6484 10 14.6484C10.166 14.6484 10.6116 14.4941 11.1063 14.1461C11.6009 13.798 12.1648 13.2734 12.6912 12.5967C13.2215 11.915 13.7138 11.0803 14.0722 10.1118C13.9892 9.87297 13.9027 9.63293 13.812 9.39379C13.6552 8.9809 13.485 8.57367 13.3032 8.18426C12.8822 8.51258 12.2602 8.75 11.875 8.75C11.25 8.75 10.625 8.125 10.625 7.5C11.25 7.1875 11.7188 7.03125 12.1875 7.03125C12.3671 7.03125 12.5468 7.05441 12.7352 7.10031C12.6163 6.90016 12.494 6.71047 12.3686 6.53344C12.0096 6.55 11.6582 6.60824 11.4035 6.68793C11.143 6.76945 11.0266 6.91754 11.0546 6.84457L10.398 6.59301C10.5378 6.22824 10.8532 6.1234 11.1937 6.01684C11.387 5.95637 11.6029 5.91027 11.8302 5.87816C11.5922 5.6341 11.3459 5.44105 11.0927 5.31449L10.8314 5.18383C10.5566 5.19148 10.2787 5.19535 10 5.19535C9.72137 5.19535 9.44336 5.19145 9.16855 5.18383ZM7.8125 7.5C7.72962 7.5 7.65013 7.53292 7.59153 7.59153C7.53292 7.65013 7.5 7.72962 7.5 7.8125C7.5 7.89538 7.53292 7.97487 7.59153 8.03347C7.65013 8.09208 7.72962 8.125 7.8125 8.125C7.89538 8.125 7.97487 8.09208 8.03347 8.03347C8.09208 7.97487 8.125 7.89538 8.125 7.8125C8.125 7.72962 8.09208 7.65013 8.03347 7.59153C7.97487 7.53292 7.89538 7.5 7.8125 7.5ZM12.1737 7.5C12.0909 7.5 12.0114 7.53292 11.9528 7.59153C11.8942 7.65013 11.8612 7.72962 11.8612 7.8125C11.8612 7.89538 11.8942 7.97487 11.9528 8.03347C12.0114 8.09208 12.0909 8.125 12.1737 8.125C12.2566 8.125 12.3361 8.09208 12.3947 8.03347C12.4533 7.97487 12.4862 7.89538 12.4862 7.8125C12.4862 7.72962 12.4533 7.65013 12.3947 7.59153C12.3361 7.53292 12.2566 7.5 12.1737 7.5ZM9.375 10L10 10.1601L10.625 10C10.625 10.625 10 10.625 10 10.625C10 10.625 9.375 10.625 9.375 10ZM5.59234 11.1277C5.41695 11.6844 5.26914 12.1872 5.13055 12.6574C4.76453 15.0999 3.97516 16.527 3.07391 18.3743C3.25813 18.3556 3.45059 18.3229 3.63883 18.2602C4.0409 18.1262 4.415 17.8839 4.68551 17.3428L4.99996 16.7139L5.31441 17.3428C5.62047 17.9548 5.7884 18.1687 5.87191 18.2324C5.91371 18.2642 5.94379 18.2771 6.0259 18.3024C6.03566 18.3055 6.05258 18.3108 6.06434 18.3145C6.56852 17.1521 7.07031 15.112 7.13992 13.4936C7.00984 13.3465 6.88074 13.1917 6.75371 13.0284C6.32938 12.4828 5.92848 11.8459 5.5923 11.1278L5.59234 11.1277ZM14.4077 11.1277C14.0715 11.8459 13.6705 12.4827 13.2463 13.0283C13.1192 13.1916 12.9901 13.3464 12.86 13.4936C12.9313 15.1496 13.455 17.2473 13.9708 18.3941C14.0076 18.392 14.0373 18.3894 14.055 18.3859C14.0979 18.3772 14.0901 18.3828 14.1267 18.346C14.1998 18.2723 14.373 17.9677 14.6855 17.3427L15 16.7138L15.3144 17.3427C15.585 17.8839 15.9591 18.1261 16.3611 18.2602C16.5683 18.3293 16.7799 18.3629 16.9805 18.3802C16.2911 16.5909 15.4669 15.2747 15.0075 13.1239C14.8375 12.5556 14.6407 11.8675 14.4076 11.1278L14.4077 11.1277ZM9.375 11.25C9.375 11.25 10 11.25 10 11.5114C10 11.25 10.625 11.25 10.625 11.25C11.25 11.25 11.875 11.875 12.5 11.875C12.5 11.875 11.3711 13.0383 10.625 13.125C10.4042 13.1507 10 12.8922 10 12.8922C10 12.8922 9.59582 13.1507 9.375 13.125C8.62891 13.0383 7.5 11.875 7.5 11.875C8.125 11.875 8.75047 11.2501 9.375 11.25ZM7.79367 14.1592C7.77668 14.3428 7.75641 14.5279 7.73195 14.7141L7.7925 14.805L8.80461 16.3232L9.75148 15.3764L9.79242 15.3354C9.39281 15.277 8.96566 15.0564 8.48906 14.7211C8.26316 14.5621 8.0293 14.3741 7.79367 14.1591V14.1592ZM12.2063 14.1592C11.9707 14.3741 11.7368 14.5621 11.5109 14.7211C11.0344 15.0564 10.6073 15.2769 10.2077 15.3354L11.1954 16.3231L12.2075 14.805L12.268 14.7141C12.2436 14.5279 12.2233 14.3427 12.2063 14.1591V14.1592ZM7.56492 15.7311C7.37156 16.7143 7.09531 17.6604 6.79227 18.3984H9.54063L8.44039 17.0284L7.56492 15.7311ZM12.4351 15.7311L11.5596 17.0284L10.4594 18.3984H13.2078C12.9047 17.6604 12.6285 16.7143 12.4351 15.7311ZM10 16.1221L9.22344 16.8988L10 17.8493L10.7766 16.8988L10 16.1221Z" fill="#9EA6FF"/>
</svg>
