<svg width="40" height="40" viewBox="0 0 40 40" fill="none" xmlns="http://www.w3.org/2000/svg">
<path d="M11.3635 14.296C12.6514 13.597 14.0854 15.0162 14.987 16.8598C14.9989 17.8296 15.3623 18.6812 15.806 19.3645L14.0808 20.9584C11.7593 19.9062 9.45058 15.987 10.9696 14.5834C11.0888 14.4718 11.2215 14.3756 11.3645 14.2969L11.3635 14.296ZM16.4135 20.1132L14.6568 21.7351C16.8037 25.5497 19.8085 21.7101 16.4135 20.1132ZM23.2628 29.0132C23.1198 29.0919 22.9871 29.1882 22.8679 29.2998C21.3489 30.7033 23.6575 34.6224 25.9791 35.6746L27.7043 34.0807C27.2606 33.3974 26.8981 32.5459 26.8851 31.576C25.9837 29.7325 24.5497 28.3133 23.2617 29.0123L23.2628 29.0132ZM28.3128 34.8306L26.556 36.4522C28.7028 40.265 31.7077 36.4263 28.3118 34.8305L28.3128 34.8306ZM23.221 16.2421C22.0746 17.1546 22.8217 19.0286 24.166 20.5782C25.0535 20.9684 25.6961 21.635 26.1519 22.3099L28.2951 21.3438C28.2322 18.7956 25.526 15.1399 23.6408 15.9906C23.4916 16.0567 23.3512 16.1412 23.2228 16.242L23.221 16.2421ZM26.605 23.1624C26.7493 26.9115 31.4571 25.6439 28.7832 22.1786L26.605 23.1624ZM10.4566 2.58251C9.57269 3.75102 10.7607 5.37735 12.4443 6.54876C13.4014 6.70595 14.189 7.19595 14.7975 7.73407L16.6317 6.26688C15.9429 3.81392 12.4147 0.93954 10.7996 2.23384C10.6713 2.3347 10.556 2.45117 10.4565 2.58056L10.4566 2.58251ZM15.4492 8.44688C16.5179 12.0434 20.7654 9.64884 17.3159 6.95376L15.4501 8.44688H15.4492Z" fill="#9E9E9E"/>
</svg>
